<?xml version="1.0" standalone="no"?>
<!DOCTYPE svg PUBLIC "-//W3C//DTD SVG 20010904//EN"
 "http://www.w3.org/TR/2001/REC-SVG-20010904/DTD/svg10.dtd">
<svg version="1.0" xmlns="http://www.w3.org/2000/svg"
 width="1280.000000pt" height="1280.000000pt" viewBox="0 0 1280.000000 1280.000000"
 preserveAspectRatio="xMidYMid meet">
<metadata>
Created by potrace 1.14, written by Peter Selinger 2001-2017
</metadata>
<g transform="translate(0.000000,1280.000000) scale(0.100000,-0.100000)"
fill="#000000" stroke="none">
<path d="M0 6400 l0 -6400 6400 0 6400 0 0 6400 0 6400 -6400 0 -6400 0 0
-6400z m3908 2360 c1443 -2612 1960 -3544 1969 -3547 9 -3 287 497 1811 3252
l869 1570 191 3 192 2 0 -3350 c0 -1842 2 -3350 3 -3350 22 0 310 58 399 81
181 45 291 84 435 154 110 54 143 76 201 132 55 54 74 81 92 128 58 160 40
455 -60 980 -81 426 -109 583 -129 720 -78 540 -40 880 139 1240 99 199 225
365 372 491 l47 41 -100 112 c-54 62 -97 116 -94 120 2 5 35 11 72 15 188 19
547 95 718 151 44 14 123 47 175 73 52 25 100 48 105 50 6 3 -6 -13 -26 -34
-122 -129 -282 -495 -384 -878 -14 -49 -26 -91 -29 -93 -2 -2 -48 46 -102 106
-54 61 -103 111 -109 111 -7 0 -46 -33 -87 -73 -183 -178 -306 -408 -365 -680
-14 -65 -18 -128 -17 -307 0 -261 14 -368 114 -889 117 -612 134 -739 134
-996 0 -213 -13 -302 -64 -419 -130 -303 -556 -528 -1230 -650 -361 -65 -119
-60 -2837 -63 l-2473 -3 0 170 0 170 2348 2 2347 3 3 2883 c2 2538 0 2882 -13
2882 -18 0 16 58 -390 -670 -994 -1784 -1951 -3483 -2180 -3867 -36 -62 -70
-113 -75 -113 -10 0 -92 137 -345 580 -325 567 -1417 2513 -2225 3965 -43 77
-84 140 -92 140 -11 0 -13 -516 -16 -3072 l-2 -3073 -190 0 -190 0 0 3540 0
3540 192 -2 192 -3 704 -1275z"/>
</g>
</svg>
